<?xml version="1.0" encoding="utf-8"?>
<!-- Generator: Adobe Illustrator 25.2.0, SVG Export Plug-In . SVG Version: 6.00 Build 0)  -->
<svg version="1.1" id="KnightLogo" xmlns="http://www.w3.org/2000/svg" xmlns:xlink="http://www.w3.org/1999/xlink" x="0px" y="0px"
	 viewBox="0 0 612 792" style="enable-background:new 0 0 612 792;" xml:space="preserve">
<style type="text/css">
	.st0{font-family:'LatinWide';}
	.st1{font-size:47.5588px;}
	.st2{fill:#FBB040;stroke:#FBB040;stroke-miterlimit:10;}
	.st3{fill:#FBB040;stroke:#000000;stroke-miterlimit:10;}
	.st4{stroke:#000000;stroke-miterlimit:10;}
	.st5{fill:#FFFFFF;stroke:#FFFFFF;stroke-miterlimit:10;}
	.st6{fill:none;}
</style>
<text transform="matrix(0.871 0 0 1 209.8814 613.25)" class="st0 st1">MMB</text>
<path class="st2" d="M239.97,140.34l33.36,60.22h110.54l33.64-60.22h-15.55c0.25,7.16-5.16,13.08-11.59,13.57
	c-7.08,0.54-13.79-5.64-13.57-13.57c-6.41,0-12.82,0-19.22,0c-1.18,14.69-12.39,26.26-25.73,27.71
	c-15.42,1.68-30.63-10.5-32.23-27.71c-5.94,0-11.87,0-17.81,0c0.69,7.38-5.24,13.65-12.16,13.57c-6.82-0.08-12.56-6.3-11.87-13.57
	C251.85,140.34,245.91,140.34,239.97,140.34z"/>
<circle class="st3" cx="328.6" cy="138.37" r="12.37"/>
<path class="st4" d="M413.59,217.57l-158.31,0.3c-0.14,0-0.28,0.01-0.42,0.05c-3.75,0.84-10.11,2.78-16.59,7.6
	c-6.06,4.51-9.64,9.61-11.55,12.84c-0.07,0.11-0.12,0.22-0.16,0.34c-21.18,59.78-42.36,119.55-63.54,179.33
	c-0.26,0.73-0.06,1.55,0.51,2.08l82.88,77.59c0.36,0.34,0.84,0.53,1.34,0.53l122.52,0c0.73,0,1.4-0.41,1.74-1.06
	c3.55-6.77,8.05-17.47,9.61-31.26c1.28-11.28,0.15-20.79-1.18-27.43c-0.01-0.07-0.03-0.13-0.05-0.19
	c-2.51-7.87-7.22-19.43-16.29-31.35c-4.65-6.11-13.02-17.11-27.42-25.04c-6.6-3.63-9.71-4.01-19.1-9.34
	c-8.08-4.6-14.3-9.17-18.41-12.44c-0.1-0.08-0.19-0.17-0.28-0.27l-14.4-17.14c-0.05-0.06-0.1-0.13-0.14-0.19
	c-3.05-4.68-7.89-13.53-9.25-25.61c-1.79-15.97,3.52-28.46,6.56-34.27c0.46-0.89,1.52-1.27,2.45-0.9c3.17,1.26,9.9,3.96,9.94,3.97
	l7.33,2.93c1.01,0.4,1.49,1.55,1.08,2.56c-1.57,3.85-3.18,8.89-4.01,14.94c-1.11,8.05-0.44,14.85,0.41,19.52
	c0.03,0.15,0.08,0.3,0.14,0.44c4.1,8.99,9.11,14.29,12.86,17.44c5.12,4.3,8.94,5.49,18.3,11.06c7.14,4.25,12.64,8.16,16.09,10.72
	c0.04,0.03,0.08,0.06,0.13,0.09c7.49,4.37,17.29,11.26,26.59,21.83c5.13,5.83,9.04,11.56,12.01,16.62c0.16,0.28,0.38,0.5,0.65,0.66
	c1.37,0.83,4.45,2.36,8.56,2.13c4.48-0.25,7.5-2.45,8.51-3.26c1.91-1.39,5.18-4.15,7.65-8.71c3.01-5.56,3.2-10.78,3.13-13.28
	c0-0.11-0.02-0.2-0.03-0.31c-7.98-41.73-15.96-83.47-23.95-125.2c-0.1-0.54,0.03-1.1,0.36-1.54c8.44-11.22,16.88-22.44,25.32-33.66
	C416.13,219.41,415.21,217.56,413.59,217.57z"/>
<path class="st5" d="M359.47,284.58h17.35c0.38,6.21,0.77,12.41,1.15,18.62c-2.55-1.28-5.72-3.2-8.93-6.06
	C364.01,292.67,361.1,287.85,359.47,284.58z"/>
<path class="st4" d="M235.63,519.76h147.71c0.05,0,0.09,0,0.14,0.01c1.88,0.35,7.37,1.62,11.9,6.57c4.1,4.47,5.09,9.4,5.38,11.33
	c0,0.03,0.01,0.06,0.02,0.09c2.9,10.24,5.79,20.47,8.69,30.71c0.14,0.48-0.23,0.96-0.73,0.96H210.26c-0.5,0-0.86-0.48-0.73-0.96
	c3.25-11.83,6.5-23.66,9.75-35.49c0.43-1.52,2.1-6.72,7.34-10.23c3.62-2.42,7.21-2.89,8.95-2.99
	C235.6,519.76,235.61,519.76,235.63,519.76z"/>
<path class="st6" d="M193.71,583.79"/>
<path class="st6" d="M219.45,583.19"/>
</svg>
